# xmcd CD database file
#
# Track frame offsets:
#	183
#	19378
#	49643
#	83713
#	109950
#	139248
#	176988
#	216033
#	256100
#
# Disc length: 3819 seconds
#
# Revision: 0
# Processed by: cddbd v1.5PL3 Copyright (c) Steve Scherf et al.
# Submitted via: CDex 1.50
#
DISCID=7d0ee909
DTITLE=Joe Sealy and Paul Novotny - Double Entendre
DYEAR=1990
DGENRE=Jazz
TTITLE0=Some Other Blues
TTITLE1=Autumn Waltz
TTITLE2=More Than You Know
TTITLE3=Do You Know What It Means To Miss New Orleans
TTITLE4=Shiny Stockings
TTITLE5=What Is This Thing Called Love
TTITLE6=Meaning Of The Blues
TTITLE7=Love For Sale
TTITLE8=Distant Shores
EXTD=YEAR: 1990
EXTT0=
EXTT1=
EXTT2=
EXTT3=
EXTT4=
EXTT5=
EXTT6=
EXTT7=
EXTT8=
PLAYORDER=
